<mxfile host="app.diagrams.net" agent="Mozilla/5.0 (Windows NT 10.0; Win64; x64) AppleWebKit/537.36 (KHTML, like Gecko) Chrome/129.0.0.0 Safari/537.36 Edg/129.0.0.0" version="24.7.17">
  <diagram id="C5RBs43oDa-KdzZeNtuy" name="Page-1">
    <mxGraphModel dx="1426" dy="901" grid="1" gridSize="10" guides="1" tooltips="1" connect="1" arrows="1" fold="1" page="1" pageScale="1" pageWidth="827" pageHeight="1169" math="0" shadow="0">
      <root>
        <mxCell id="WIyWlLk6GJQsqaUBKTNV-0" />
        <mxCell id="WIyWlLk6GJQsqaUBKTNV-1" parent="WIyWlLk6GJQsqaUBKTNV-0" />
        <mxCell id="VzRjQSMVrOHmQdl7SLVF-17" style="edgeStyle=orthogonalEdgeStyle;rounded=0;orthogonalLoop=1;jettySize=auto;html=1;exitX=1;exitY=0.5;exitDx=0;exitDy=0;entryX=0;entryY=0.5;entryDx=0;entryDy=0;curved=1;" edge="1" parent="WIyWlLk6GJQsqaUBKTNV-1" source="WIyWlLk6GJQsqaUBKTNV-3" target="VzRjQSMVrOHmQdl7SLVF-6">
          <mxGeometry relative="1" as="geometry" />
        </mxCell>
        <mxCell id="WIyWlLk6GJQsqaUBKTNV-3" value="255&lt;div&gt;上游仓库&lt;/div&gt;" style="rounded=1;whiteSpace=wrap;html=1;fontSize=12;glass=0;strokeWidth=1;shadow=0;" parent="WIyWlLk6GJQsqaUBKTNV-1" vertex="1">
          <mxGeometry x="170" y="150" width="120" height="40" as="geometry" />
        </mxCell>
        <mxCell id="VzRjQSMVrOHmQdl7SLVF-16" style="edgeStyle=orthogonalEdgeStyle;rounded=0;orthogonalLoop=1;jettySize=auto;html=1;exitX=1;exitY=0.5;exitDx=0;exitDy=0;entryX=0;entryY=0.5;entryDx=0;entryDy=0;curved=1;" edge="1" parent="WIyWlLk6GJQsqaUBKTNV-1" source="VzRjQSMVrOHmQdl7SLVF-4" target="VzRjQSMVrOHmQdl7SLVF-6">
          <mxGeometry relative="1" as="geometry" />
        </mxCell>
        <mxCell id="VzRjQSMVrOHmQdl7SLVF-4" value="190&lt;div&gt;清关行&lt;/div&gt;" style="rounded=1;whiteSpace=wrap;html=1;fontSize=12;glass=0;strokeWidth=1;shadow=0;" vertex="1" parent="WIyWlLk6GJQsqaUBKTNV-1">
          <mxGeometry x="170" y="90" width="120" height="40" as="geometry" />
        </mxCell>
        <mxCell id="VzRjQSMVrOHmQdl7SLVF-19" style="edgeStyle=orthogonalEdgeStyle;rounded=0;orthogonalLoop=1;jettySize=auto;html=1;exitX=1;exitY=0.5;exitDx=0;exitDy=0;entryX=0;entryY=0.5;entryDx=0;entryDy=0;" edge="1" parent="WIyWlLk6GJQsqaUBKTNV-1" source="VzRjQSMVrOHmQdl7SLVF-5">
          <mxGeometry relative="1" as="geometry">
            <mxPoint x="770" y="140" as="targetPoint" />
          </mxGeometry>
        </mxCell>
        <mxCell id="VzRjQSMVrOHmQdl7SLVF-5" value="200&lt;div&gt;司机已扫&lt;/div&gt;" style="rounded=1;whiteSpace=wrap;html=1;fontSize=12;glass=0;strokeWidth=1;shadow=0;" vertex="1" parent="WIyWlLk6GJQsqaUBKTNV-1">
          <mxGeometry x="580" y="120" width="120" height="40" as="geometry" />
        </mxCell>
        <mxCell id="VzRjQSMVrOHmQdl7SLVF-18" style="edgeStyle=orthogonalEdgeStyle;rounded=0;orthogonalLoop=1;jettySize=auto;html=1;exitX=1;exitY=0.5;exitDx=0;exitDy=0;entryX=0;entryY=0.5;entryDx=0;entryDy=0;" edge="1" parent="WIyWlLk6GJQsqaUBKTNV-1" source="VzRjQSMVrOHmQdl7SLVF-6" target="VzRjQSMVrOHmQdl7SLVF-5">
          <mxGeometry relative="1" as="geometry" />
        </mxCell>
        <mxCell id="VzRjQSMVrOHmQdl7SLVF-31" style="edgeStyle=orthogonalEdgeStyle;rounded=0;orthogonalLoop=1;jettySize=auto;html=1;exitX=1;exitY=0.5;exitDx=0;exitDy=0;curved=1;" edge="1" parent="WIyWlLk6GJQsqaUBKTNV-1" source="VzRjQSMVrOHmQdl7SLVF-6" target="VzRjQSMVrOHmQdl7SLVF-28">
          <mxGeometry relative="1" as="geometry" />
        </mxCell>
        <mxCell id="VzRjQSMVrOHmQdl7SLVF-6" value="199&lt;div&gt;A-scan&lt;/div&gt;" style="rounded=1;whiteSpace=wrap;html=1;fontSize=12;glass=0;strokeWidth=1;shadow=0;" vertex="1" parent="WIyWlLk6GJQsqaUBKTNV-1">
          <mxGeometry x="400" y="120" width="120" height="40" as="geometry" />
        </mxCell>
        <mxCell id="VzRjQSMVrOHmQdl7SLVF-8" value="&lt;div&gt;218&lt;/div&gt;&lt;div&gt;状态断更&lt;/div&gt;" style="rounded=1;whiteSpace=wrap;html=1;fontSize=12;glass=0;strokeWidth=1;shadow=0;" vertex="1" parent="WIyWlLk6GJQsqaUBKTNV-1">
          <mxGeometry x="1000" y="250" width="120" height="40" as="geometry" />
        </mxCell>
        <mxCell id="VzRjQSMVrOHmQdl7SLVF-21" style="edgeStyle=orthogonalEdgeStyle;rounded=0;orthogonalLoop=1;jettySize=auto;html=1;exitX=1;exitY=0.5;exitDx=0;exitDy=0;entryX=0;entryY=0.5;entryDx=0;entryDy=0;curved=1;" edge="1" parent="WIyWlLk6GJQsqaUBKTNV-1" source="VzRjQSMVrOHmQdl7SLVF-10" target="VzRjQSMVrOHmQdl7SLVF-11">
          <mxGeometry relative="1" as="geometry" />
        </mxCell>
        <mxCell id="VzRjQSMVrOHmQdl7SLVF-22" style="edgeStyle=orthogonalEdgeStyle;rounded=0;orthogonalLoop=1;jettySize=auto;html=1;exitX=1;exitY=0.5;exitDx=0;exitDy=0;entryX=0;entryY=0.5;entryDx=0;entryDy=0;curved=1;" edge="1" parent="WIyWlLk6GJQsqaUBKTNV-1" source="VzRjQSMVrOHmQdl7SLVF-10" target="VzRjQSMVrOHmQdl7SLVF-12">
          <mxGeometry relative="1" as="geometry" />
        </mxCell>
        <mxCell id="VzRjQSMVrOHmQdl7SLVF-23" style="edgeStyle=orthogonalEdgeStyle;rounded=0;orthogonalLoop=1;jettySize=auto;html=1;exitX=1;exitY=0.5;exitDx=0;exitDy=0;entryX=0;entryY=0.5;entryDx=0;entryDy=0;curved=1;" edge="1" parent="WIyWlLk6GJQsqaUBKTNV-1" source="VzRjQSMVrOHmQdl7SLVF-10" target="VzRjQSMVrOHmQdl7SLVF-8">
          <mxGeometry relative="1" as="geometry" />
        </mxCell>
        <mxCell id="VzRjQSMVrOHmQdl7SLVF-24" style="edgeStyle=orthogonalEdgeStyle;rounded=0;orthogonalLoop=1;jettySize=auto;html=1;exitX=1;exitY=0.5;exitDx=0;exitDy=0;entryX=0;entryY=0.5;entryDx=0;entryDy=0;curved=1;" edge="1" parent="WIyWlLk6GJQsqaUBKTNV-1" source="VzRjQSMVrOHmQdl7SLVF-10" target="VzRjQSMVrOHmQdl7SLVF-13">
          <mxGeometry relative="1" as="geometry" />
        </mxCell>
        <mxCell id="VzRjQSMVrOHmQdl7SLVF-10" value="&lt;div&gt;202&lt;/div&gt;&lt;div&gt;审核，司机发货&lt;/div&gt;" style="rounded=1;whiteSpace=wrap;html=1;fontSize=12;glass=0;strokeWidth=1;shadow=0;" vertex="1" parent="WIyWlLk6GJQsqaUBKTNV-1">
          <mxGeometry x="770" y="120" width="120" height="40" as="geometry" />
        </mxCell>
        <mxCell id="VzRjQSMVrOHmQdl7SLVF-11" value="&lt;div&gt;211&lt;/div&gt;&lt;div&gt;不可配送&lt;/div&gt;" style="rounded=1;whiteSpace=wrap;html=1;fontSize=12;glass=0;strokeWidth=1;shadow=0;" vertex="1" parent="WIyWlLk6GJQsqaUBKTNV-1">
          <mxGeometry x="1000" y="60" width="120" height="40" as="geometry" />
        </mxCell>
        <mxCell id="VzRjQSMVrOHmQdl7SLVF-27" style="edgeStyle=orthogonalEdgeStyle;rounded=0;orthogonalLoop=1;jettySize=auto;html=1;exitX=1;exitY=0.5;exitDx=0;exitDy=0;" edge="1" parent="WIyWlLk6GJQsqaUBKTNV-1" source="VzRjQSMVrOHmQdl7SLVF-12">
          <mxGeometry relative="1" as="geometry">
            <mxPoint x="1180" y="160" as="targetPoint" />
          </mxGeometry>
        </mxCell>
        <mxCell id="VzRjQSMVrOHmQdl7SLVF-12" value="&lt;div&gt;231&lt;/div&gt;&lt;div&gt;配送失败1st&lt;/div&gt;" style="rounded=1;whiteSpace=wrap;html=1;fontSize=12;glass=0;strokeWidth=1;shadow=0;" vertex="1" parent="WIyWlLk6GJQsqaUBKTNV-1">
          <mxGeometry x="1000" y="140" width="120" height="40" as="geometry" />
        </mxCell>
        <mxCell id="VzRjQSMVrOHmQdl7SLVF-13" value="&lt;div&gt;203&lt;/div&gt;&lt;div&gt;送达&lt;/div&gt;" style="rounded=1;whiteSpace=wrap;html=1;fontSize=12;glass=0;strokeWidth=1;shadow=0;" vertex="1" parent="WIyWlLk6GJQsqaUBKTNV-1">
          <mxGeometry x="1000" y="380" width="120" height="40" as="geometry" />
        </mxCell>
        <mxCell id="VzRjQSMVrOHmQdl7SLVF-25" value="&lt;div&gt;入库&lt;/div&gt;" style="rounded=1;whiteSpace=wrap;html=1;fontSize=12;glass=0;strokeWidth=1;shadow=0;" vertex="1" parent="WIyWlLk6GJQsqaUBKTNV-1">
          <mxGeometry x="1420" y="60" width="120" height="40" as="geometry" />
        </mxCell>
        <mxCell id="VzRjQSMVrOHmQdl7SLVF-26" value="&lt;div&gt;232&lt;/div&gt;&lt;div&gt;配送失败2nd&lt;/div&gt;" style="rounded=1;whiteSpace=wrap;html=1;fontSize=12;glass=0;strokeWidth=1;shadow=0;" vertex="1" parent="WIyWlLk6GJQsqaUBKTNV-1">
          <mxGeometry x="1181" y="140" width="120" height="40" as="geometry" />
        </mxCell>
        <mxCell id="VzRjQSMVrOHmQdl7SLVF-28" value="排线，处理飞单" style="rounded=1;whiteSpace=wrap;html=1;fontSize=12;glass=0;strokeWidth=1;shadow=0;" vertex="1" parent="WIyWlLk6GJQsqaUBKTNV-1">
          <mxGeometry x="400" y="250" width="120" height="40" as="geometry" />
        </mxCell>
        <mxCell id="VzRjQSMVrOHmQdl7SLVF-29" value="202" style="rounded=1;whiteSpace=wrap;html=1;fontSize=12;glass=0;strokeWidth=1;shadow=0;" vertex="1" parent="WIyWlLk6GJQsqaUBKTNV-1">
          <mxGeometry x="300" y="340" width="120" height="40" as="geometry" />
        </mxCell>
        <mxCell id="VzRjQSMVrOHmQdl7SLVF-30" value="310995" style="rounded=1;whiteSpace=wrap;html=1;fontSize=12;glass=0;strokeWidth=1;shadow=0;" vertex="1" parent="WIyWlLk6GJQsqaUBKTNV-1">
          <mxGeometry x="480" y="340" width="120" height="40" as="geometry" />
        </mxCell>
        <mxCell id="VzRjQSMVrOHmQdl7SLVF-32" value="入库" style="rounded=1;whiteSpace=wrap;html=1;fontSize=12;glass=0;strokeWidth=1;shadow=0;" vertex="1" parent="WIyWlLk6GJQsqaUBKTNV-1">
          <mxGeometry x="480" y="430" width="120" height="40" as="geometry" />
        </mxCell>
      </root>
    </mxGraphModel>
  </diagram>
</mxfile>
